<svg xmlns="http://www.w3.org/2000/svg" xmlns:xlink="http://www.w3.org/1999/xlink" width="111" height="456"><style><![CDATA[.B{fill-rule:nonzero}.C{fill:#fff}.D{fill:#677897}.E{fill:#ffd400}.F{fill:#fff3b6}.G{fill:#dab400}.H{fill:#ab6993}]]></style><g fill="none" fill-rule="evenodd"><path d="M55 14c0 .552.455 1 1.007 1H78a1 1 0 0 0 1-1h0a1 1 0 0 0-1.001-1H56a1 1 0 0 0-1 1h0zm0-8c0 .552.455 1 1.007 1H78a1 1 0 0 0 1-1h0a1 1 0 0 0-1.001-1H56a1 1 0 0 0-1 1h0zm0 16c0 .552.455 1 1.007 1H78a1 1 0 0 0 1-1h0a1 1 0 0 0-1.001-1H56a1 1 0 0 0-1 1h0z" fill="#161616"/><g class="B"><path d="M42.81 6.533c-1.122.555-1.963 1.49-2.578 2.552C39.246 7.38 37.675 6 35.297 6S30 8.07 30 11.57c0 3.542 2.882 5.22 4.31 6.17 1.526 1.013 4.13 2.853 5.924 6.26 1.796-3.407 4.4-5.248 5.925-6.26 1.072-.713 2.967-1.84 3.842-3.86l-7.19-7.348zm-.405 7.347V7.4l6.328 6.5h-6.328z" fill="#e5322d"/><path d="M42.81 206.533c-1.122.555-1.963 1.49-2.578 2.552-.988-1.703-2.558-3.085-4.937-3.085S30 208.07 30 211.57c0 3.542 2.882 5.22 4.31 6.17 1.526 1.013 4.13 2.853 5.924 6.26 1.796-3.407 4.4-5.248 5.925-6.26 1.072-.713 2.967-1.84 3.842-3.86l-7.19-7.348zm-.405 7.347v-6.5l6.328 6.5h-6.328z" class="D"/></g><use xlink:href="#B" fill="#161616"/><use xlink:href="#B" y="10" class="C"/><use xlink:href="#B" y="20" fill="#4d90fe"/><path d="M37.4 269.6l-4.6-4.6 4.6-4.6L36 259l-6 6 6 6 1.4-1.4zm5.2 0l4.6-4.6-4.6-4.6L44 259l6 6-6 6-1.4-1.4z" class="D"/><path d="M42.81 31.533c-1.122.555-1.963 1.49-2.578 2.552C39.246 32.38 37.675 31 35.297 31S30 33.07 30 36.57c0 3.542 2.882 5.22 4.31 6.17 1.526 1.013 4.13 2.853 5.924 6.26 1.796-3.407 4.4-5.248 5.925-6.26 1.072-.713 2.967-1.84 3.842-3.86l-7.19-7.348zm-.405 7.347v-6.5l6.328 6.5h-6.328z" fill="#4d90fe" class="B"/><path d="M8.205 5h13.6c1.114 0 1.52.116 1.926.334a2.27 2.27 0 0 1 .945.945c.218.407.334.812.334 1.926v13.6c0 1.114-.116 1.52-.334 1.926a2.27 2.27 0 0 1-.945.945c-.407.218-.812.334-1.926.334h-13.6c-1.114 0-1.52-.116-1.926-.334a2.27 2.27 0 0 1-.945-.945C5.116 23.314 5 22.9 5 21.795v-13.6c0-1.114.116-1.52.334-1.926a2.27 2.27 0 0 1 .945-.945C6.686 5.116 7.1 5 8.205 5z" fill="#8fbc5d"/><g class="C"><circle cx="15" cy="15" r="1"/><g class="B"><path d="M17.784 18.552l-.01 2.003a.56.56 0 0 1-.556.556c-.306.002-.552-.245-.55-.55l.017-3.32a.56.56 0 0 1 .556-.556l3.32-.017c.306-.002.552.245.55.55a.56.56 0 0 1-.556.556l-2.123.01 3.092 3.092a.5.5 0 1 1-.708.708l-3.032-3.032z"/><use xlink:href="#C"/><use xlink:href="#D"/><path d="M17.784 11.5l-.01-2.003a.56.56 0 0 0-.556-.556c-.306-.002-.552.245-.55.55l.017 3.32a.56.56 0 0 0 .556.556l3.32.017c.306.002.552-.245.55-.55a.56.56 0 0 0-.556-.556l-2.123-.01 3.092-3.092a.5.5 0 0 0-.708-.708L17.784 11.5z"/></g></g><path d="M15.7 46v-4.9a1.8 1.8 0 0 0-1.8-1.8H9v-6.736c0-.892.093-1.215.267-1.54s.43-.582.756-.756.65-.267 1.54-.267h10.872c.892 0 1.215.093 1.54.267s.582.43.756.756.267.65.267 1.54v10.872c0 .892-.093 1.215-.267 1.54s-.43.582-.756.756-.65.267-1.54.267H15.7z" fill="#cbebf7"/><use xlink:href="#D" x="9.166" y="15.834" fill="#1c83a8" class="B"/><g fill="#3cb6e2"><path d="M13.398 40c.557 0 .76.058.963.167s.364.27.473.473.167.406.167.963v6.795c0 .557-.058.76-.167.963s-.27.364-.473.473-.406.167-.963.167H6.602c-.557 0-.76-.058-.963-.167s-.364-.27-.473-.473S5 48.955 5 48.398v-6.795c0-.557.058-.76.167-.963s.27-.364.473-.473.406-.167.963-.167h6.795zm0 .8H6.602c-.387 0-.486.02-.586.072-.064.034-.1.08-.144.144-.053.1-.072.198-.072.586v6.795c0 .387.02.486.072.586.034.064.08.1.144.144.1.053.198.072.586.072h6.795c.387 0 .486-.02.586-.072.064-.034.1-.08.144-.144.053-.1.072-.198.072-.586v-6.795c0-.387-.02-.486-.072-.586-.034-.064-.08-.1-.144-.144-.1-.053-.198-.072-.586-.072zm-4.756 4a1.1 1.1 0 0 1 0-2.2 1.1 1.1 0 0 1 1.099 1.099 1.1 1.1 0 0 1-1.099 1.099z"/><path d="M14.24 49.6c.175.173.117-2.485.292-2.658a.44.44 0 0 0 0-.627l-2.24-2.215a.45.45 0 0 0-.633 0l-5.34 5.242c-.175.173.24.085.414.258a.45.45 0 0 0 .633 0h6.875zM8.205 55h13.6c1.114 0 1.52.116 1.926.334a2.27 2.27 0 0 1 .945.945c.218.407.334.812.334 1.926v13.6c0 1.114-.116 1.52-.334 1.926a2.27 2.27 0 0 1-.945.945c-.407.218-.812.334-1.926.334h-13.6c-1.114 0-1.52-.116-1.926-.334a2.27 2.27 0 0 1-.945-.945C5.116 73.314 5 72.9 5 71.795v-13.6c0-1.114.116-1.52.334-1.926a2.27 2.27 0 0 1 .945-.945c.407-.208.82-.324 1.926-.324z"/></g><path d="M13.623 62.457c.134-.292.2-.612.2-.957 0-1.29-1.044-2.333-2.333-2.333S9.167 60.21 9.167 61.5s1.044 2.333 2.333 2.333c.344 0 .665-.076.957-.2L13.833 65l-1.377 1.377c-.292-.134-.613-.2-.957-.2-1.29 0-2.333 1.044-2.333 2.333s1.044 2.333 2.333 2.333 2.333-1.044 2.333-2.333c0-.344-.076-.665-.2-.957L15 66.167l4.083 4.083h1.75v-.583l-7.2-7.2zm-2.123.2c-.642 0-1.167-.52-1.167-1.167s.525-1.167 1.167-1.167 1.167.52 1.167 1.167-.525 1.167-1.167 1.167h0zm0 7c-.642 0-1.167-.52-1.167-1.167s.525-1.167 1.167-1.167 1.167.52 1.167 1.167-.525 1.167-1.167 1.167h0zm3.5-4.375a.29.29 0 1 1 0-.583.29.29 0 1 1 0 .583h0zm4.083-5.542l-3.5 3.5 1.167 1.167 4.083-4.083v-.583h-1.75z" class="C"/><path d="M8.205 80h13.6c1.114 0 1.52.116 1.926.334a2.27 2.27 0 0 1 .945.945c.218.407.334.812.334 1.926v13.6c0 1.114-.116 1.52-.334 1.926a2.27 2.27 0 0 1-.945.945c-.407.218-.812.334-1.926.334h-13.6c-1.114 0-1.52-.116-1.926-.334a2.27 2.27 0 0 1-.945-.945C5.116 98.314 5 97.9 5 96.795v-13.6c0-1.114.116-1.52.334-1.926a2.27 2.27 0 0 1 .945-.945C6.686 80.116 7.1 80 8.205 80z" fill="#3cb6e2"/><g class="C"><path d="M14.346 85.304a.5.5 0 1 1 .127.992c-2.14.274-3.773 2.085-3.773 4.255 0 1.763 1.077 3.314 2.69 3.97a.5.5 0 1 1-.377.926C11.03 94.64 9.7 92.726 9.7 90.55c0-2.68 2.012-4.91 4.646-5.247zm5.91 4.575a.5.5 0 1 1-.99.141 4.64 4.64 0 0 0-.362-1.265.5.5 0 1 1 .911-.412 5.64 5.64 0 0 1 .441 1.536zm-4.574 5.918a.5.5 0 1 1-.141-.99 4.65 4.65 0 0 0 1.236-.349.5.5 0 1 1 .405.914 5.65 5.65 0 0 1-1.499.424zm3.517-2a.5.5 0 0 1-.8-.6c.287-.383.505-.765.65-1.146a.5.5 0 0 1 .934.357c-.18.473-.445.935-.785 1.39z" class="B"/><path d="M14.713 88.4c-.17 0-.312-.142-.312-.312v-4.375c0-.17.142-.312.313-.312a.31.31 0 0 1 .22.093l2.188 2.187a.31.31 0 0 1 .093.22.31.31 0 0 1-.093.22l-2.187 2.188a.31.31 0 0 1-.22.093z"/></g><path d="M15 105h6.795c1.114 0 1.52.116 1.926.334a2.27 2.27 0 0 1 .945.945c.218.407.334.812.334 1.926v13.6c0 1.114-.116 1.52-.334 1.926a2.27 2.27 0 0 1-.945.945c-.407.218-.812.334-1.926.334h-13.6c-1.114 0-1.52-.116-1.926-.334a2.27 2.27 0 0 1-.945-.945c-.218-.407-.334-.812-.334-1.926V115h8.264c.604 0 .823-.063 1.043-.18a1.23 1.23 0 0 0 .512-.512c.118-.22.18-.44.18-1.043V105z" class="E"/><path d="M6.47 105h6.23c.51 0 .696.053.883.153a1.04 1.04 0 0 1 .433.433c.1.187.153.372.153.883v6.23c0 .51-.053.696-.153.883a1.04 1.04 0 0 1-.433.433c-.187.1-.372.153-.883.153H6.47c-.51 0-.696-.053-.883-.153a1.04 1.04 0 0 1-.433-.433c-.1-.187-.153-.372-.153-.883v-6.23c0-.51.053-.696.153-.883a1.04 1.04 0 0 1 .433-.433c.187-.1.372-.153.883-.153z" class="F"/><path d="M10.55 109.843l.01-2.003a.56.56 0 0 1 .556-.556c.306-.002.552.245.55.55l-.017 3.32a.56.56 0 0 1-.556.556l-3.32.017c-.306.002-.552-.245-.55-.55a.56.56 0 0 1 .556-.556l2.123-.01-3.092-3.092a.5.5 0 0 1 .708-.708l3.032 3.032z" class="B G"/><path d="M11.727 117.813v3.202c0 1.135-.594 1.82-1.74 1.82-1.393 0-1.654-.985-1.654-1.518 0-.458.198-.752.55-.752.417 0 .523.346.523.714 0 .353.156.61.566.61.382 0 .594-.3.594-.887v-3.187c0-.368.226-.616.58-.616s.58.248.58.616zm1.075 4.374v-4.17c0-.55.27-.72.68-.72h1.774c.976 0 1.76.51 1.76 1.714 0 .985-.643 1.714-1.767 1.714H13.96v1.466c0 .368-.226.616-.58.616s-.58-.248-.58-.616zm1.16-3.946v1.533h1.082c.467 0 .813-.3.813-.767 0-.54-.36-.767-.933-.767h-.96zm8.54 2.112v2.037c0 .225-.163.413-.396.413-.332 0-.424-.218-.495-.7-.332.443-.792.73-1.513.73-1.796 0-2.48-1.315-2.48-2.833 0-1.826 1.075-2.833 2.65-2.833 1.287 0 1.972.82 1.972 1.3 0 .428-.297.54-.544.54-.573 0-.36-.85-1.492-.85-.8 0-1.428.556-1.428 1.924 0 1.067.495 1.804 1.442 1.804.615 0 1.152-.443 1.21-1.105h-.756c-.247 0-.523-.098-.523-.473 0-.3.163-.473.452-.473h1.428c.34 0 .474.18.474.52z" class="C"/><path d="M15 150H8.205c-1.114 0-1.52-.116-1.926-.334a2.27 2.27 0 0 1-.945-.945c-.218-.407-.334-.812-.334-1.926v-13.6c0-1.114.116-1.52.334-1.926a2.27 2.27 0 0 1 .945-.945c.407-.218.812-.334 1.926-.334h13.6c1.114 0 1.52.116 1.926.334a2.27 2.27 0 0 1 .945.945c.218.407.334.812.334 1.926V140h-8.264c-.604 0-.823.063-1.043.18a1.23 1.23 0 0 0-.512.512c-.118.22-.18.44-.18 1.043V150z" class="E"/><path d="M23.53 150h-6.23c-.51 0-.696-.053-.883-.153a1.04 1.04 0 0 1-.433-.433c-.1-.187-.153-.372-.153-.883v-6.23c0-.51.053-.696.153-.883a1.04 1.04 0 0 1 .433-.433c.187-.1.372-.153.883-.153h6.23c.51 0 .696.053.883.153a1.04 1.04 0 0 1 .433.433c.1.187.153.372.153.883v6.23c0 .51-.053.696-.153.883a1.04 1.04 0 0 1-.433.433c-.187.1-.372.153-.883.153z" class="F"/><use xlink:href="#C" x="9.998" y="134.948" class="B G"/><path d="M10.893 132.98v3.202c0 1.135-.594 1.82-1.74 1.82-1.393 0-1.654-.985-1.654-1.518 0-.458.198-.752.55-.752.417 0 .523.346.523.714 0 .353.156.61.566.61.382 0 .594-.3.594-.887v-3.187c0-.368.226-.616.58-.616s.58.248.58.616zm1.075 4.374v-4.17c0-.55.27-.72.68-.72h1.774c.976 0 1.76.51 1.76 1.714 0 .985-.643 1.714-1.767 1.714h-1.287v1.466c0 .368-.226.616-.58.616s-.58-.248-.58-.616zm1.16-3.946v1.533h1.082c.467 0 .813-.3.813-.767 0-.54-.36-.767-.933-.767h-.96zm8.54 2.112v2.037c0 .225-.163.413-.396.413-.332 0-.424-.218-.495-.7-.332.443-.792.73-1.513.73-1.796 0-2.48-1.315-2.48-2.833 0-1.826 1.075-2.833 2.65-2.833 1.287 0 1.972.82 1.972 1.3 0 .428-.297.54-.544.54-.573 0-.36-.85-1.492-.85-.8 0-1.428.556-1.428 1.924 0 1.067.495 1.804 1.442 1.804.615 0 1.152-.443 1.21-1.105h-.756c-.247 0-.523-.098-.523-.473 0-.3.163-.473.452-.473h1.428c.34 0 .474.18.474.52z" class="C"/><g class="B"><use xlink:href="#E" class="H"/><g class="C"><path d="M9 171.4l1.11-4.39 6.61-6.61L20 163.682l-6.61 6.61L9 171.4zm1.907-3.948l-.665 2.706 2.706-.665 5.8-5.8-2.04-2.04-5.8 5.8z"/><path d="M12.586 169.8a2.98 2.98 0 0 0-2.186-2.186l.214-.814a3.83 3.83 0 0 1 2.786 2.786l-.814.214z"/><path d="M17.773 162l.627.627-5.773 5.773-.627-.626zM9.6 170.6l1.2-.3a1.24 1.24 0 0 0-.9-.9l-.3 1.2zm10.642-7.2L17 160.127l1.314-1.327.22.044c1.577.22 2.804 1.46 3.023 3.052l.044.22-1.358 1.283zm-2.015-3.273l2.015 2.035.394-.398a2.65 2.65 0 0 0-2.015-2.035l-.394.398z"/></g></g><use xlink:href="#E" y="25" class="H"/><g class="B"><path d="M14.082 189c0 .344-.437 1.208-.844 1.866a.27.27 0 0 0-.031.21c.03.1.13.188.244.188h3.098a.25.25 0 0 0 .226-.142.26.26 0 0 0-.023-.269c-.578-.788-.835-1.36-.835-1.852s.258-1.064.837-1.856a2.2 2.2 0 0 0 .405-1.277c0-1.208-.97-2.2-2.16-2.2s-2.16.983-2.16 2.2a2.2 2.2 0 0 0 .408 1.281c.577.8.835 1.36.835 1.853zm5.608 2.632H10.3c-.14 0-.254.115-.254.257v2.586c0 .142.113.257.254.257h9.378c.14 0 .254-.115.254-.257v-2.586c0-.142-.114-.257-.254-.257zm-1.436 3.478h-6.508c-.14 0-.254.115-.254.257v.292c0 .142.113.257.254.257h6.508c.14 0 .254-.115.254-.257v-.292c0-.142-.114-.257-.254-.257z" class="C"/><use xlink:href="#E" y="50" class="H"/><path d="M14.9 209c3.48 0 6.3 2.776 6.3 6.2s-2.82 6.2-6.3 6.2-6.3-2.776-6.3-6.2 2.82-6.2 6.3-6.2zm3.406 7.6h-7c-2.094 0-.408 3.505 3.5 3.505s5.667-3.505 3.5-3.505zm-1.608-3.2h-.018c-.475.01-.936.382-1.4 1.1-.06.092-.125.256-.033.316s.193-.036.467-.212c.493-.317.7-.498.976-.494s.516.2.976.494c.274.176.375.273.467.212s.028-.224-.033-.316c-.465-.708-.926-1.08-1.4-1.1h0zm-3.6 0h-.018c-.475.01-.936.382-1.4 1.1-.06.092-.125.256-.033.316s.193-.036.467-.212c.493-.317.7-.498.976-.494s.516.2.976.494c.274.176.375.273.467.212s.028-.224-.033-.316c-.465-.708-.926-1.08-1.4-1.1h0zm1.687 6.4c.177 0 1.88-.115 1.88-.336S15.56 219 14.785 219s-1.785.243-1.785.464 1.608.336 1.785.336z" class="C"/></g><path d="M14.143 250c-.72 0-.982-.075-1.245-.216a1.47 1.47 0 0 1-.611-.611c-.14-.263-.216-.525-.216-1.245v-4.2l3.818-.001c.92 0 1.295-.09 1.634-.257l.078-.04a2.02 2.02 0 0 0 .84-.84c.194-.362.297-.72.297-1.712h0l.001-3.818h4.2c.72 0 .982.075 1.245.216a1.47 1.47 0 0 1 .611.611c.14.263.216.525.216 1.245v8.786c0 .72-.075.982-.216 1.245a1.47 1.47 0 0 1-.611.611c-.263.14-.525.216-1.245.216h-8.786z" class="F"/><path d="M22.576 244.855a.35.35 0 0 0-.353-.347.35.35 0 0 0-.353.347v1.537l-2.058-2.02c-.138-.135-.36-.135-.5 0a.34.34 0 0 0 0 .49l2.058 2.02h-1.566a.35.35 0 0 0-.353.347.35.35 0 0 0 .353.347h2.418c.046 0 .092-.01.135-.027a.35.35 0 0 0 .191-.187c.018-.042.027-.087.027-.132v-2.374z" class="B G"/><path d="M7.072 230h8.786c.72 0 .982.075 1.245.216a1.47 1.47 0 0 1 .611.611c.14.263.216.525.216 1.245v8.786c0 .72-.075.982-.216 1.245a1.47 1.47 0 0 1-.611.611c-.263.14-.525.216-1.245.216H7.072c-.72 0-.982-.075-1.245-.216a1.47 1.47 0 0 1-.611-.611c-.14-.263-.216-.525-.216-1.245v-8.786c0-.72.075-.982.216-1.245a1.47 1.47 0 0 1 .611-.611c.263-.14.525-.216 1.245-.216z" class="E"/><g class="B"><path d="M6.29 237.538v-2.212c0-.186.122-.312.312-.312s.312.125.312.312v.775h1.132v-.775c0-.186.122-.312.312-.312s.312.125.312.312v2.212c0 .186-.122.312-.312.312s-.312-.125-.312-.312v-.912H6.912v.912c0 .186-.122.312-.312.312s-.312-.125-.312-.312zm3.625 0v-1.95h-.59c-.18 0-.323-.09-.323-.262s.144-.262.323-.262h1.8c.18 0 .323.09.323.262s-.144.262-.323.262h-.59v1.95c0 .186-.122.312-.312.312s-.312-.125-.312-.312zm1.858.008v-2.223c0-.25.17-.308.338-.308h.182c.194 0 .285.076.35.285l.543 1.756h.008l.536-1.756c.065-.21.156-.285.35-.285h.175c.167 0 .338.057.338.308v2.223c0 .156-.076.304-.277.304s-.277-.148-.277-.304v-1.695h-.008l-.58 1.816c-.042.13-.137.182-.266.182s-.224-.053-.266-.182l-.58-1.816h-.008v1.695c0 .156-.076.304-.277.304s-.277-.148-.277-.304zm3.386-.1v-2.11c0-.186.122-.312.312-.312s.312.125.312.312v1.95h1.04c.18 0 .323.09.323.262s-.144.262-.323.262h-1.3c-.22 0-.365-.087-.365-.365z" class="C"/><circle fill="#383e45" cx="67" cy="205" r="12"/><path d="M60.85 208.915l5.206-5.2c-.515-1.315-.23-2.858.858-3.944 1.144-1.143 2.86-1.37 4.234-.743l-2.46 2.458 1.716 1.714 2.518-2.457c.686 1.37.4 3.086-.744 4.23-1.087 1.085-2.632 1.37-3.948.856l-5.206 5.202c-.105.1-.25.172-.4.172s-.296-.062-.4-.172l-1.315-1.314c-.287-.23-.287-.63-.058-.8v-.001z" class="C"/></g><path d="M64 267c-4.968 0-9 4.032-9 9s4.032 9 9 9 9-4.032 9-9-4.032-9-9-9zm0 2.7c1.494 0 2.7 1.206 2.7 2.7s-1.206 2.7-2.7 2.7-2.7-1.206-2.7-2.7 1.206-2.7 2.7-2.7zm0 12.6c-2.25 0-4.24-1.097-5.4-2.76.027-1.706 3.6-2.64 5.4-2.64 1.8 0 5.373.935 5.4 2.64-1.16 1.663-3.15 2.76-5.4 2.76z" opacity=".87" class="C"/><path d="M79.334 252.944a4.45 4.45 0 0 0-4.443 4.45c0 2.453 1.99 4.442 4.442 4.442s4.442-1.99 4.442-4.442a4.45 4.45 0 0 0-4.441-4.45m17.006-9.83a22.22 22.22 0 0 0-12.083-7.385 132.86 132.86 0 0 1-.489 4.47 17.78 17.78 0 0 1 9.172 5.78c.443.52 1.07.787 1.7.787a2.2 2.2 0 0 0 1.434-.52c.452-.38.735-.923.785-1.51s-.137-1.172-.52-1.62M74.4 235.73c-4.725 1.078-8.97 3.67-12.083 7.385-.79.94-.67 2.34.268 3.132s2.34.67 3.132-.268a17.8 17.8 0 0 1 9.169-5.78l-.486-4.47m1.057 8.923c-2.474.748-4.676 2.2-6.34 4.176-.378.45-.562 1.033-.51 1.62s.333 1.128.784 1.505c.413.356.92.522 1.426.522a2.23 2.23 0 0 0 1.708-.789 8.85 8.85 0 0 1 3.546-2.55l-.613-4.483m14.073 4.176c-1.664-1.98-3.868-3.43-6.344-4.178l-.6 4.483c1.377.54 2.596 1.418 3.547 2.552.442.52 1.072.8 1.707.8.507 0 1.013-.167 1.426-.523.45-.377.734-.92.785-1.505s-.133-1.17-.51-1.62m13.607-11.422C98.4 231.763 91.8 228 84.527 226.764l-.078 4.483a26.67 26.67 0 0 1 15.298 9.017c.418.507 1.043.798 1.7.794.863-.002 1.647-.503 2.01-1.285s.243-1.705-.31-2.367m-29.005-10.64a31.07 31.07 0 0 0-18.622 10.643c-.555.66-.677 1.584-.313 2.367s1.15 1.284 2.013 1.285c.637 0 1.267-.267 1.7-.787 3.918-4.67 9.32-7.856 15.302-9.026l-.08-4.482m7.732 8.832c-.156 3.082-1.05 12.278-1.05 12.278-.135 1.524-.6 1.943-1.493 1.943s-1.353-.42-1.49-1.943l-1.05-12.278c-.103-2.135-.135-8.556-.135-8.556 0-2.68.982-4.042 2.674-4.042s2.68 1.363 2.68 4.04l-.135 8.556" fill="#0063ca"/><g class="B"><path d="M40 155c-5.52 0-10 4.48-10 10s4.47 10 10 10A10.01 10.01 0 0 0 50 165a10.01 10.01 0 0 0-10.01-10zm6.93 6h-2.95a15.65 15.65 0 0 0-1.38-3.56 8.03 8.03 0 0 1 4.33 3.56zM40 157.04c.83 1.2 1.48 2.53 1.9 3.96H38.1c.43-1.43 1.08-2.76 1.9-3.96zM32.26 167c-.16-.64-.26-1.3-.26-2s.1-1.36.26-2h3.38c-.08.66-.14 1.32-.14 2s.06 1.34.14 2h-3.38zm.82 2h2.95a15.65 15.65 0 0 0 1.38 3.56c-1.84-.63-3.37-1.9-4.33-3.56h0zm2.95-8h-2.95c.96-1.66 2.5-2.93 4.33-3.56a15.65 15.65 0 0 0-1.38 3.56h0zM40 172.96c-.83-1.2-1.48-2.53-1.9-3.96h3.82c-.43 1.43-1.08 2.76-1.9 3.96zm2.34-5.96h-4.68c-.1-.66-.16-1.32-.16-2s.07-1.35.16-2h4.68c.1.65.16 1.32.16 2s-.07 1.34-.16 2zm.25 5.56a15.65 15.65 0 0 0 1.38-3.56h2.95a8.03 8.03 0 0 1-4.33 3.56h0zm1.77-5.56c.08-.66.14-1.32.14-2s-.06-1.34-.14-2h3.38c.16.64.26 1.3.26 2s-.1 1.36-.26 2h-3.38z" class="D"/><path d="M40 280c-5.52 0-10 4.48-10 10s4.47 10 10 10A10.01 10.01 0 0 0 50 290a10.01 10.01 0 0 0-10.01-10zm6.93 6h-2.95a15.65 15.65 0 0 0-1.38-3.56 8.03 8.03 0 0 1 4.33 3.56zM40 282.04c.83 1.2 1.48 2.53 1.9 3.96H38.1c.43-1.43 1.08-2.76 1.9-3.96zM32.26 292c-.16-.64-.26-1.3-.26-2s.1-1.36.26-2h3.38c-.08.66-.14 1.32-.14 2s.06 1.34.14 2h-3.38zm.82 2h2.95a15.65 15.65 0 0 0 1.38 3.56c-1.84-.63-3.37-1.9-4.33-3.56h0zm2.95-8h-2.95c.96-1.66 2.5-2.93 4.33-3.56a15.65 15.65 0 0 0-1.38 3.56h0zM40 297.96c-.83-1.2-1.48-2.53-1.9-3.96h3.82c-.43 1.43-1.08 2.76-1.9 3.96zm2.34-5.96h-4.68c-.1-.66-.16-1.32-.16-2s.07-1.35.16-2h4.68c.1.65.16 1.32.16 2s-.07 1.34-.16 2zm.25 5.56a15.65 15.65 0 0 0 1.38-3.56h2.95a8.03 8.03 0 0 1-4.33 3.56h0zm1.77-5.56c.08-.66.14-1.32.14-2s-.06-1.34-.14-2h3.38c.16.64.26 1.3.26 2s-.1 1.36-.26 2h-3.38z" fill="#383e45"/></g><g class="D"><use xlink:href="#F"/><use xlink:href="#F" x="-12"/><use xlink:href="#F" y="12"/><use xlink:href="#F" x="-12" y="12"/><path d="M40 180c-5.52 0-10 4.48-10 10s4.48 10 10 10 10-4.48 10-10-4.48-10-10-10h0zm-3.398 7.328c0-1.372 1.568-2.6 3.276-2.6 1.792 0 3.556.826 3.556 2.8 0 1.82-2.086 2.52-2.534 3.178-.336.5-.224 1.176-1.148 1.176-.602 0-.896-.5-.896-.938 0-1.666 2.45-2.044 2.45-3.416 0-.756-.504-1.204-1.344-1.204-1.792 0-1.092 1.848-2.45 1.848-.5 0-.9-.294-.9-.854zm2.058 6.622c0-.63.518-1.148 1.148-1.148s1.148.518 1.148 1.148-.518 1.148-1.148 1.148-1.148-.518-1.148-1.148zM48 132H32c-1.1 0-2 .9-2 2v12c0 1.1.9 2 2 2h16c1.1 0 2-.9 2-2v-12c0-1.1-.9-2-2-2h0zm0 14H32v-6h16v6zm0-10H32v-2h16v2zm0 96H32c-1.1 0-2 .9-2 2v12c0 1.1.9 2 2 2h16c1.1 0 2-.9 2-2v-12c0-1.1-.9-2-2-2h0zm0 4l-8 5-8-5v-2l8 5 8-5v2zm-.38 103.524H46.2v-3.8a1.91 1.91 0 0 0-1.905-1.905h-3.8v-1.43a2.38 2.38 0 0 0-2.38-2.38c-1.313 0-2.38 1.067-2.38 2.38v1.43h-3.8c-1.048 0-1.895.857-1.895 1.905v3.62h1.42a2.57 2.57 0 0 1 2.57 2.57c0 1.418-1.152 2.57-2.57 2.57H30v3.62A1.91 1.91 0 0 0 31.905 350h3.62v-1.43a2.57 2.57 0 0 1 2.57-2.57c1.418 0 2.57 1.152 2.57 2.57V350h3.62a1.91 1.91 0 0 0 1.905-1.905v-3.8h1.43a2.38 2.38 0 0 0 2.38-2.38c0-1.313-1.067-2.38-2.38-2.38h0z"/></g><g class="B"><path d="M50 358.352v5.51c0 1.304-1.06 2.363-2.38 2.363h-6.43a15.67 15.67 0 0 1-.316-.003c-.09-.002-.193-.003-.233.002-.04.027-.143.12-.24.208l-.13.117-1.82 1.637a.51.51 0 0 1-.54.086.5.5 0 0 1-.306-.448v-5.19l4.793 3.098v7.764a.48.48 0 0 1-.489.484c-.12 0-.24-.05-.334-.133l-2.174-1.97h-6.99c-1.322 0-2.41-1.04-2.41-2.345v-5.51c0-1.304 1.087-2.37 2.41-2.37h5.194v-3.304c0-1.304 1.096-2.352 2.417-2.352h7.6c1.32 0 2.38 1.048 2.38 2.352z" class="D"/><g class="C"><use xlink:href="#G"/><use xlink:href="#G" x="3"/><path d="M39.5 358.4c0-.505.397-.91.87-.91h7.297c.46 0 .834.395.834.91v5.66c0 .52-.377.922-.834.922H41.5c-.117 0-.203-.001-.272-.002-.694-.015-.934.092-1.48.622l-.075.066-.054.05-.1.105v-7.42z"/></g><path d="M45 360.146c0 .678-.446 1.1-.772 1.392-.123.115-.353.324-.353.402.002.306-.22.55-.498.55s-.504-.237-.506-.542c-.004-.6.392-.96.7-1.256.25-.232.414-.395.414-.545 0-.302-.223-.55-.496-.55s-.497.246-.497.55-.225.555-.502.555-.502-.248-.502-.555c0-.914.673-1.658 1.5-1.658s1.5.74 1.5 1.656zM43.494 363a.49.49 0 0 0-.494.5v.004a.49.49 0 0 0 .494.497c.28 0 .506-.225.506-.5s-.226-.5-.506-.5z" class="D"/></g><g class="D"><path d="M30.38 396.242l8.168-8.203c-.808-2.073-.36-4.507 1.346-6.22 1.795-1.803 4.488-2.163 6.642-1.172l-2.974 2.987a1.26 1.26 0 0 0-.004 1.775l.93.933c.487.49 1.275.5 1.778.006l3.053-2.996c1.077 2.163.628 4.867-1.167 6.67-1.705 1.713-4.13 2.163-6.193 1.352l-8.168 8.203c-.36.36-.898.36-1.257 0l-2.064-2.073c-.45-.36-.45-.992-.1-1.262z"/><path d="M49.7 410.1c-.168-.22-.404-.387-.71-.504.016.274-.004.496-.06.668l-3.603 11.566c-.064.203-.204.365-.42.486s-.44.182-.673.182H33.14c-.96 0-1.537-.273-1.73-.82-.08-.21-.076-.38.012-.504.088-.117.24-.176.456-.176h10.436c.745 0 1.26-.135 1.543-.404s.57-.87.86-1.8l3.29-10.617c.176-.578.104-1.086-.216-1.523s-.777-.656-1.37-.656h-9.14l-1.17.006c-.156.004-.3.05-.432.135s-.072.035-.318.275-5.236 13.896-5.236 13.928c-.176.47-.168.965.024 1.49.224.61.622 1.123 1.195 1.54s1.167.627 1.783.627h11.085c.52 0 1.01-.17 1.47-.5s.767-.76.92-1.26l3.303-10.617c.176-.563.104-1.067-.216-1.512zm-12.778.023l.252-.75c.032-.102.098-.19.198-.264a.51.51 0 0 1 .306-.111h7.302c.112 0 .192.037.24.11s.056.162.024.264l-.252.75c-.032.102-.098.19-.198.264a.51.51 0 0 1-.306.111h-7.302c-.112 0-.192-.037-.24-.11s-.056-.162-.024-.264zm-.997 3l.252-.75c.032-.102.098-.19.198-.264a.51.51 0 0 1 .306-.111h7.302c.112 0 .192.037.24.11s.056.162.024.264l-.252.75c-.032.102-.098.2-.198.264a.51.51 0 0 1-.306.111H36.18c-.112 0-.192-.037-.24-.11s-.056-.162-.024-.264z" class="B"/></g><g class="B"><path d="M49 435.22a.82.82 0 0 0-.35-.683l-.08-.054-8.204-4.39c-.23-.123-.503-.123-.733 0l-8.22 4.398c-.253.123-.414.385-.414.673v9.616a.82.82 0 0 0 .427.724l8.205 4.39c0 0 .007.004.02.01.222.13.495.123.715-.01l8.205-4.392a.82.82 0 0 0 .427-.724v-9.56z" class="D"/><path d="M40 432.208l6 3-6 3-6-3zm-7.103 4.992l6 3.142v6.858l-6-3.142zm14.206 6.848l-6 3.142v-6.858l6-3.142z" class="C"/></g><path d="M61.784 182.495l-4.526 4.3c-.288.274-.755.274-1.042 0s-.288-.717 0-1L60.22 182l-4.005-3.804c-.288-.274-.288-.717 0-1s.755-.274 1.042 0l4.526 4.3a.68.68 0 0 1 0 .99h0z" class="D"/></g><defs ><path id="B" d="M62.5 146h-7c-.133-.002-.26.058-.352.164s-.15.244-.148.39.052.29.148.39l3.5 3.888c.092.107.22.167.352.166s.26-.06.352-.166l3.5-3.888c.096-.102.15-.243.15-.39s-.053-.29-.15-.39-.22-.166-.352-.164h0z"/><path id="C" d="M12.218 11.5l.01-2.003a.56.56 0 0 1 .556-.556c.306-.002.552.245.55.55l-.017 3.32a.56.56 0 0 1-.556.556l-3.32.017c-.306.002-.552-.245-.55-.55a.56.56 0 0 1 .556-.556l2.123-.01-3.092-3.092a.5.5 0 1 1 .708-.708l3.032 3.032z"/><path id="D" d="M12.218 18.552l.01 2.003a.56.56 0 0 0 .556.556c.306.002.552-.245.55-.55l-.017-3.32a.56.56 0 0 0-.556-.556l-3.32-.017c-.306-.002-.552.245-.55.55a.56.56 0 0 0 .556.556l2.123.01-3.092 3.092a.5.5 0 0 0 .708.708l3.032-3.032z"/><path id="E" d="M8.205 155h13.6c1.114 0 1.52.116 1.926.334a2.27 2.27 0 0 1 .945.945c.218.407.334.812.334 1.926v13.6c0 1.114-.116 1.52-.334 1.926a2.27 2.27 0 0 1-.945.945c-.407.218-.812.334-1.926.334h-13.6c-1.114 0-1.52-.116-1.926-.334a2.27 2.27 0 0 1-.945-.945c-.218-.407-.334-.812-.334-1.926v-13.6c0-1.114.116-1.52.334-1.926a2.27 2.27 0 0 1 .945-.945c.407-.218.812-.334 1.926-.334z"/><path id="F" d="M42 112.003a1 1 0 0 0 .997.997h6.006a1 1 0 0 0 .997-.997v-6.006a1 1 0 0 0-.997-.997h-6.006a1 1 0 0 0-.997.997v6.006z"/><path id="G" d="M33.177 366.17c-.53 0-.96.448-.96 1s.43 1 .96 1h.08c.53 0 .96-.448.96-1s-.43-1-.96-1h-.08z"/></defs></svg>